<?xml version="1.0" standalone="no"?>
<!DOCTYPE svg PUBLIC "-//W3C//DTD SVG 20010904//EN"
 "http://www.w3.org/TR/2001/REC-SVG-20010904/DTD/svg10.dtd">
<svg version="1.0" xmlns="http://www.w3.org/2000/svg"
 width="101.000000pt" height="101.000000pt" viewBox="0 0 101.000000 101.000000"
 preserveAspectRatio="xMidYMid meet">
<metadata>
Created by potrace 1.14, written by Peter Selinger 2001-2017
</metadata>
<g transform="translate(0.000000,101.000000) scale(0.100000,-0.100000)"
fill="#000000" stroke="none">
<path d="M0 505 l0 -505 505 0 505 0 0 505 0 505 -505 0 -505 0 0 -505z m975
0 l0 -470 -470 0 -470 0 -3 460 c-1 253 0 466 3 473 3 10 103 12 472 10 l468
-3 0 -470z"/>
<path d="M72 503 l3 -438 432 -3 433 -2 5 22 c3 13 4 210 3 438 l-3 415 -438
3 -437 2 2 -437z m316 338 c10 -6 10 -10 -3 -21 -12 -10 -15 -37 -15 -137 0
-70 5 -133 11 -145 14 -26 6 -33 -42 -32 -48 2 -56 8 -35 29 13 13 16 40 16
145 0 120 -2 130 -20 140 -11 6 -18 15 -15 21 7 11 85 12 103 0z m308 -6 c7
-18 -3 -65 -15 -65 -4 0 -13 11 -19 25 -8 17 -20 25 -37 25 l-25 0 0 -138 c0
-93 4 -142 12 -150 18 -18 1 -27 -48 -26 -52 1 -64 9 -40 27 14 11 16 29 14
147 l-3 135 -27 3 c-20 2 -28 -2 -33 -18 -8 -24 -28 -22 -33 4 -9 42 2 46 128
46 98 0 122 -3 126 -15z m-456 -505 c0 -5 -4 -10 -10 -10 -5 0 -10 5 -10 10 0
6 5 10 10 10 6 0 10 -4 10 -10z m140 0 c0 -5 -2 -10 -4 -10 -3 0 -8 5 -11 10
-3 6 -1 10 4 10 6 0 11 -4 11 -10z m462 -14 c11 -17 9 -116 -2 -116 -5 0 -10
25 -10 56 0 42 -5 60 -17 70 -17 13 -17 14 2 7 11 -3 23 -11 27 -17z m-212
-78 c0 -64 -13 -89 -27 -52 -4 11 -17 15 -46 12 -23 -1 -42 2 -44 9 -3 7 11 9
41 6 38 -5 45 -3 51 16 3 12 4 35 0 51 -8 35 3 60 16 39 5 -8 9 -44 9 -81z
m126 55 c-3 -21 -6 -51 -6 -66 0 -16 -4 -26 -10 -22 -11 7 -14 108 -3 118 17
17 25 4 19 -30z m-399 -8 c6 -14 8 -25 4 -25 -5 0 -13 -10 -18 -22 l-11 -23
-9 24 c-12 29 -5 71 11 71 6 0 16 -11 23 -25z m-77 11 c0 -3 -4 -8 -10 -11 -5
-3 -10 -1 -10 4 0 6 5 11 10 11 6 0 10 -2 10 -4z m220 -31 c0 -19 -4 -35 -10
-35 -5 0 -10 7 -10 15 0 11 -13 15 -47 17 -48 1 -48 1 -8 5 22 3 44 11 48 19
14 25 27 15 27 -21z m-220 -21 c0 -3 -5 -14 -10 -25 -9 -15 -22 -19 -62 -19
-28 0 -48 3 -44 7 4 4 27 6 51 4 40 -2 45 0 45 18 0 12 5 21 10 21 6 0 10 -3
10 -6z m157 -40 c-3 -3 -12 -4 -19 -1 -8 3 -5 6 6 6 11 1 17 -2 13 -5z"/>
</g>
</svg>
